<svg xmlns="http://www.w3.org/2000/svg" data-name="Layer 1" viewBox="0 0 32 40" x="0px" y="0px"><title>Name</title><path d="M8,15a4,4,0,1,1,4-4A4,4,0,0,1,8,15ZM8,9a2,2,0,1,0,2,2A2,2,0,0,0,8,9Zm6,17H2a1,1,0,0,1-1-1V21a5,5,0,0,1,5-5h4a5,5,0,0,1,5,5v4A1,1,0,0,1,14,26ZM3,24H13V21a3,3,0,0,0-3-3H6a3,3,0,0,0-3,3ZM31,14a1,1,0,0,0-1-1H18a1,1,0,0,0,0,2H30A1,1,0,0,0,31,14Zm0,4a1,1,0,0,0-1-1H18a1,1,0,0,0,0,2H30A1,1,0,0,0,31,18Zm-6,4a1,1,0,0,0-1-1H18a1,1,0,0,0,0,2h6A1,1,0,0,0,25,22Z"/><text x="0" y="47" fill="#000000" font-size="5px" font-weight="bold" font-family="'Helvetica Neue', Helvetica, Arial-Unicode, Arial, Sans-serif">Created by Yoyon Pujiyono</text><text x="0" y="52" fill="#000000" font-size="5px" font-weight="bold" font-family="'Helvetica Neue', Helvetica, Arial-Unicode, Arial, Sans-serif">from the Noun Project</text></svg>